<?xml version="1.0" encoding="utf-8"?>
<!-- Generator: Adobe Illustrator 23.0.3, SVG Export Plug-In . SVG Version: 6.00 Build 0)  -->
<svg version="1.1" id="Capa_1" xmlns="http://www.w3.org/2000/svg" xmlns:xlink="http://www.w3.org/1999/xlink" x="0px" y="0px"
	 viewBox="0 0 512 512" style="enable-background:new 0 0 512 512;" xml:space="preserve">
<style type="text/css">
	.st0{fill:#1E1E1E;}
</style>
<path class="st0" d="M414.57,205.46h-33.83c0,0-21.72-9.87-23.81-42.6c-2.62-40.94-46.36-70.17-83.95-75.18
	c-37.59-5.01-68.22-4.98-90.22,0c-29.19,6.6-83.31,28.28-87.71,81.45c-4.13,49.95-6.09,116.08,0,154.12
	c5.26,32.82,30.31,96.42,91.68,101.77c67.7,5.9,111.59,2.82,147.65-5.28c31.15-7,78.94-30.07,86.46-93.98
	C420.83,240.54,414.57,205.46,414.57,205.46z M155.87,193.68c0-11.29,9.15-20.43,20.43-20.43h109.52c11.28,0,20.43,9.15,20.43,20.43
	c0,11.29-9.15,20.43-20.43,20.43H176.31C165.02,214.12,155.87,204.97,155.87,193.68z M319.66,342.52H196.21
	c-16.12,0-29.19-13.07-29.19-29.19c0-16.12,13.07-29.19,29.19-29.19h123.45c16.12,0,29.19,13.07,29.19,29.19
	C348.85,329.45,335.78,342.52,319.66,342.52z"/>
</svg>
