<?xml version="1.0" encoding="UTF-8" standalone="no"?> <svg id="Layer_1" data-name="Layer 1" xmlns="http://www.w3.org/2000/svg" viewBox="0 0 128 128"><defs><style>.cls-1{fill:#2d3e50;}</style></defs><title>x</title><path class="cls-1" d="M93.9791,121.98418a5.61951,5.61951,0,0,0,.47127-1.19092c2.33083-8.27724,30.84252-109.53,30.928-109.92129a6.9114,6.9114,0,0,0-1.90046-6.33713l-.00638-.00638-.00638-.00638A6.9114,6.9114,0,0,0,117.128,2.62161c-.39131.08549-101.644,28.59719-109.92129,30.928a5.6195,5.6195,0,0,0-1.19092.47127,7.01712,7.01712,0,0,0-.50024,11.89049c.49208.32463,52.39749,24.1748,52.39749,24.1748l.00024.00051.00051.00024s23.85017,51.90541,24.1748,52.39749a7.01712,7.01712,0,0,0,11.89049-.50024Z"/></svg>